PathFileType	4	(X/Y/Z)	Patient4_TMGait_0pt6_02_right_12.trc.trc
DataRate	CameraRate	NumFrames	NumMarkers	Units	OrigDataRate	OrigDataStartFrame	OrigNumFrames
80.000000000000	80.000000000000	4	33	mm	80.000000000000	71	       141
Frame#	Time	Sacral			L.Shoulder			Chest			R.Shoulder			Neck			R.ASIS			L.ASIS			R.Thigh.Superior			R.Thigh.Lateral			R.Thigh.Inferior			R.Patella			L.Thigh.Superior			L.Thigh.Lateral			L.Thigh.Inferior			L.Patella			L.Shank.Superior			L.Shank.Lateral			L.Shank.Inferior			R.Shank.Superior			R.Shank.Lateral			R.Shank.Inferior			R.Heel			R.Midfoot.Superior			R.Midfoot.Lateral			R.Toe			L.Heel			L.Midfoot.Lateral			L.Midfoot.Superior			L.Toe			L.Elbow			L.Wrist			R.Elbow			R.Wrist			
		X1	Y1	Z1	X2	Y2	Z2	X3	Y3	Z3	X4	Y4	Z4	X5	Y5	Z5	X6	Y6	Z6	X7	Y7	Z7	X8	Y8	Z8	X9	Y9	Z9	X10	Y10	Z10	X11	Y11	Z11	X12	Y12	Z12	X13	Y13	Z13	X14	Y14	Z14	X15	Y15	Z15	X16	Y16	Z16	X17	Y17	Z17	X18	Y18	Z18	X19	Y19	Z19	X20	Y20	Z20	X21	Y21	Z21	X22	Y22	Z22	X23	Y23	Z23	X24	Y24	Z24	X25	Y25	Z25	X26	Y26	Z26	X27	Y27	Z27	X28	Y28	Z28	X29	Y29	Z29	X30	Y30	Z30	X31	Y31	Z31	X32	Y32	Z32	X33	Y33	Z33	

71	15.005000000000	720.895751966710	994.112234712072	504.127284672347	865.856192148051	1427.532271579001	321.128980170335	989.307810490882	1353.830610145290	463.790972611430	930.065225376627	1423.358539259219	647.353622027999	884.195658416886	1483.813297027887	472.697666097666	952.599996588152	931.513052865061	608.666785677302	925.141400548778	950.533363478167	334.220996905468	955.299914750482	718.928193413252	578.984581661097	853.380209380424	621.943529781866	639.098692763089	914.776112858278	558.111748740553	557.676769767324	894.374592425299	468.800424423611	559.806733368578	1003.563965481708	766.186187303720	366.961414883669	954.485828651761	635.485337925359	291.263392544526	1056.616169879147	578.587376942996	355.128455681164	1081.184254964125	511.432123796301	354.319479619929	1064.643129508703	437.930561160145	344.082904711007	996.709531396511	309.123018503920	293.423932336073	1080.198233227751	209.196115816967	351.193104331194	851.115769341093	386.012229300076	565.929115843666	763.130822520200	295.761684529638	628.402959928426	783.344355519552	196.863523175554	561.907117006163	625.179767567499	43.627693614486	533.263567083587	798.188070270981	95.794872355528	565.584364336682	709.418789933985	36.895281370239	605.724294500002	917.512420152622	41.503386695690	592.839775726697	989.324863130773	39.474503604854	391.247963191860	1062.737360056652	38.493543369070	310.560476551760	1140.116400751627	107.046189002969	332.477613583665	1270.902917738452	65.210113235484	305.174419979302	738.862595732713	1097.300286695224	218.162048178302	760.304702576109	836.491425301837	200.772630524670	1072.705852220499	1105.202550185645	734.202309152093	1288.579350579279	1155.209047132588	613.009071599975	
72	15.017500000000	722.098946275051	992.740828772063	502.157408407383	865.562630418385	1425.952137804424	318.312178951660	989.433421171631	1353.205890251636	461.078129123823	929.949265848310	1422.958021544784	644.510674108611	883.878171760539	1482.742566084999	469.641636426776	953.983280727669	930.143299813435	606.719846105273	926.544998444299	949.399831310926	332.485256348142	956.066939137340	717.291842618220	577.207927352510	853.524097640735	620.753086793345	637.313807311825	914.437411656764	556.437832488607	555.902584022341	893.234765721620	466.658809382602	557.939321886108	1005.431086430956	764.535812028322	366.571872307568	955.541545062008	634.238145381020	291.178806490646	1057.101590679137	577.055560673555	355.895262640047	1080.446725536772	508.788245511571	355.460602243280	1063.102705794929	435.007761664050	344.846404179200	993.144116798201	307.424287270681	293.718382237151	1073.855163995933	205.931926028270	352.548101021933	848.603103126883	384.597566907646	564.383387132394	759.537884625535	295.688607211788	627.406693606595	777.853453621657	196.403149220299	561.149580557811	617.851533100553	44.540153819824	533.281011857409	791.013471954293	95.828474869654	565.398520937159	702.077814002075	37.326776474818	605.683826822382	910.147271345276	40.905499596413	592.924823826919	978.704347251261	38.555707368366	391.748683580398	1052.468794105985	36.885095684101	311.279436223857	1131.401818011397	103.227972378353	334.670614167885	1261.675443579861	58.434471481114	307.442367207591	739.190439590097	1095.193940212996	216.262879387690	760.684010647981	834.318094751845	199.704298940641	1075.582053653942	1106.468702354500	732.075439667063	1288.874087432610	1162.400819380249	609.510299127329	
73	15.030000000000	723.291611471987	991.673321681849	500.175564032621	865.375215210421	1424.596588513484	315.427838528437	989.694405186509	1352.796654198062	458.284017236593	930.038659211917	1422.841972766708	641.597176677680	883.736642770312	1481.926925795420	466.489975520787	955.384369733689	928.983986716631	604.596435929458	927.834719206729	948.620325429132	330.610968320773	956.872147435609	715.904554233958	575.220354016161	853.794748815833	619.786270788650	635.385025761759	914.280363491731	554.990343052998	554.030759978337	892.396188059787	464.656995441630	556.100620588830	1007.244354106714	763.317745274964	365.954129229369	956.656965926384	633.464241828295	290.828747783721	1057.717510079877	575.977892794858	356.329260269987	1079.876823413631	506.689999600892	356.256828739993	1061.809321927629	432.666490863122	345.319649511846	990.109606125064	306.242825017570	293.680297470010	1068.062107430989	203.352467361951	353.564377970448	846.270803675726	383.404968048134	562.861370618577	756.048836239628	295.931353212287	626.401280367034	772.508905348364	196.230443169651	560.468297850543	610.592095278891	45.910915078555	533.349460230658	784.018495120215	95.981735055730	565.302731344819	694.808549150670	37.975371637945	605.674453798516	902.831631237527	40.275456921090	593.010345642533	968.978999444459	38.002848098269	391.994379364921	1043.057188257671	35.858383726267	311.725145225578	1123.219426112152	100.370792972205	336.428833134135	1253.080693889927	53.186026214012	309.250517097749	739.943705241363	1093.146752347276	214.336136720279	761.521098590629	832.222096496164	198.440745346155	1077.882818999731	1107.620942118269	730.152020293377	1288.908114914648	1168.474685647718	606.531412689675	
74	15.042500000000	724.447264953579	990.986436024366	498.180253759321	865.296048359018	1423.551866981536	312.521026355439	990.095250835828	1352.636545758546	455.424932061042	930.379749900011	1423.033216909518	638.641428606787	883.790816228357	1481.419086517798	463.302440816798	956.752125960846	928.106460073148	602.274105259256	928.962925507031	948.247981681712	328.545141826080	957.660723776368	714.841344885307	573.032652518311	854.183907030093	619.098599471121	633.342691537398	914.342589728572	553.832216634595	552.111226435503	891.941766333835	462.838433812341	554.400069221504	1008.939565575691	762.644419401285	365.048736687998	957.835215351479	633.192724387403	290.194997058218	1058.439897259277	575.379428718016	356.355856166799	1079.476050164318	505.167252882807	356.642105430661	1060.736762124169	430.911183233854	345.489738104295	987.533852637046	305.584018305720	293.340250215974	1062.763550690231	201.452100168926	354.244731226038	844.178907910656	382.470009636870	561.441041527046	752.695440719847	296.551277109597	625.430477065465	767.358169288132	196.398356854853	559.915658225100	603.420672003139	47.832166898183	533.486611556695	777.247254114696	96.271042009865	565.334137151127	687.619816414031	38.873957852214	605.705949651873	895.565931295419	39.640788188166	593.089511207228	960.136195341044	37.763407960990	392.049202254307	1034.464194650041	35.333601226773	311.943040695757	1115.524547601141	98.444192984064	337.716818394244	1245.075680270385	49.465153335880	310.542376012097	741.112169350661	1091.266720187578	212.403289771115	762.828057995684	830.312787918984	196.993503044238	1079.590464408216	1108.656830857292	728.418439066761	1288.758871679461	1173.375677666825	604.051963496487	
